<svg version="1.1" xmlns="http://www.w3.org/2000/svg" xmlns:xlink="http://www.w3.org/1999/xlink" width="119.38636" height="49.9801" viewBox="0,0,119.38636,49.9801"><g transform="translate(-180.30683,-155.00995)"><g data-paper-data="{&quot;isPaintingLayer&quot;:true}" fill-rule="nonzero" stroke="none" stroke-width="0" stroke-linecap="butt" stroke-linejoin="miter" stroke-miterlimit="10" stroke-dasharray="" stroke-dashoffset="0" style="mix-blend-mode: normal"><path d="M221.2223,174.53779c0,10.78492 -9.15923,19.52784 -20.45773,19.52784c-11.2985,0 -20.45774,-8.74292 -20.45774,-19.52784c0,-10.78493 9.15924,-19.52784 20.45774,-19.52784c11.2985,0 20.45773,8.74292 20.45773,19.52785z" fill="#5500ff"></path><path d="M254.61127,192.90139c0,6.67639 -5.67001,12.08866 -12.66432,12.08866c-6.9943,0 -12.66431,-5.41229 -12.66431,-12.08866c0,-6.67638 5.67001,-12.08866 12.66431,-12.08866c6.9943,0 12.66432,5.41229 12.66432,12.08866z" fill="#ff0047"></path><path d="M280.13085,180.72159c0,3.82608 -3.24934,6.92774 -7.25762,6.92774c-4.00829,0 -7.25762,-3.10166 -7.25762,-6.92774c0,-3.82608 3.24934,-6.92773 7.25762,-6.92773c4.00829,0 7.25762,3.10165 7.25762,6.92773z" fill="#0eff00"></path><path d="M299.69319,189.18552c0,2.34393 -1.99061,4.24405 -4.44615,4.24405c-2.45555,0 -4.44615,-1.90013 -4.44615,-4.24404c0,-2.34392 1.9906,-4.24404 4.44615,-4.24404c2.45553,0 4.44615,1.90012 4.44615,4.24404z" fill="#ff00c3"></path></g></g></svg>